Coordinates
version=1
nRows=27
nColumns=12
inDegrees=yes

Units are S.I. units (second, meters, Newtons, ...)
Angles are in degrees

endheader
time	SC_y	SC_z	SC_x	AC_y	AC_z	AC_x	GH_y	GH_z	GH_yy	EL_x	PS_y
       0.0              -25.69          7.072           13.2          48.12         -13.18         -13.33         -118.6          31.95          135.6          91.39          114.1
   0.04612              -25.69          7.075           13.2          48.12         -13.18         -13.33         -118.6          31.94          135.6          91.39          114.1
   0.09223               -25.7           7.08           13.2          48.12         -13.18         -13.32         -118.6          31.94          135.7          91.38          114.1
    0.1383               -25.7          7.084           13.2          48.12         -13.18         -13.32         -118.6          31.94          135.7          91.38          114.1
    0.1845              -25.71          7.089           13.2          48.12         -13.18         -13.32         -118.6          31.93          135.7          91.37          114.1
    0.2306              -25.71          7.094          13.19          48.12         -13.18         -13.31         -118.5          31.93          135.7          91.37          114.1
    0.2767              -25.72          7.099          13.19          48.12         -13.18         -13.31         -118.5          31.92          135.7          91.36          114.1
    0.3228              -25.73          7.105          13.19          48.12         -13.19          -13.3         -118.5          31.92          135.7          91.36          114.1
    0.3689              -25.73          7.111          13.19          48.12         -13.19          -13.3         -118.5          31.91          135.7          91.35          114.1
     0.415              -25.74          7.117          13.19          48.12         -13.19         -13.29         -118.5          31.91          135.7          91.34          114.1
    0.4612              -25.75          7.125          13.19          48.12         -13.19         -13.29         -118.5           31.9          135.7          91.33          114.1
    0.5073              -25.76          7.132          13.19          48.12         -13.19         -13.28         -118.4           31.9          135.7          91.33          114.1
    0.5534              -25.77           7.14          13.18          48.12         -13.19         -13.28         -118.4          31.89          135.7          91.32          114.1
    0.5995              -25.78          7.149          13.18          48.12         -13.19         -13.27         -118.4          31.88          135.7          91.31          114.1
    0.6456              -25.79          7.159          13.18          48.12         -13.19         -13.26         -118.4          31.87          135.7           91.3          114.1
    0.6917              -25.81          7.169          13.18          48.12         -13.19         -13.25         -118.3          31.86          135.7          91.29          114.1
    0.7379              -25.82           7.18          13.17          48.12         -13.19         -13.24         -118.3          31.86          135.7          91.28          114.1
     0.784              -25.84          7.193          13.17          48.12         -13.19         -13.23         -118.3          31.85          135.8          91.26          114.1
    0.8301              -25.85          7.206          13.17          48.12         -13.19         -13.22         -118.2          31.83          135.8          91.25          114.1
    0.8762              -25.87          7.221          13.17          48.11          -13.2         -13.21         -118.2          31.82          135.8          91.24          114.1
    0.9223              -25.89          7.237          13.16          48.11          -13.2          -13.2         -118.2          31.81          135.8          91.22          114.0
    0.9684              -25.91          7.255          13.16          48.11          -13.2         -13.19         -118.1          31.79          135.8           91.2          114.0
     1.015              -25.94          7.274          13.15          48.11          -13.2         -13.17         -118.1          31.78          135.8          91.18          114.0
     1.061              -25.97          7.296          13.15          48.11          -13.2         -13.15         -118.0          31.76          135.8          91.16          114.0
     1.107               -26.0           7.32          13.14          48.11          -13.2         -13.13         -117.9          31.74          135.9          91.13          114.0
     1.153              -26.03          7.347          13.14          48.11         -13.21         -13.11         -117.9          31.72          135.9          91.11          114.0
     1.199              -26.07          7.377          13.13          48.11         -13.21         -13.09         -117.8          31.69          135.9          91.07          114.0
